<?xml version="1.0" encoding="utf-8"?>
<!DOCTYPE svg PUBLIC "-//W3C//DTD SVG 1.1//EN" "http://www.w3.org/Graphics/SVG/1.1/DTD/svg11.dtd">
<svg version="1.1" xmlns="http://www.w3.org/2000/svg" xmlns:xlink="http://www.w3.org/1999/xlink" viewBox="0 0 32 32" preserveAspectRatio="xMinYMin" width="32" height="32">
	<path fill="rgb(255,255,255)" d="M18.054,14.934v-0.038c-0.008,0.012-0.019,0.026-0.026,0.038
		H18.054z M27.333,2H4.667C3.194,2,2,3.193,2,4.664v22.668C2,28.805,3.194,30,4.667,30h22.667C28.806,30,30,28.805,30,27.332V4.664
		C30,3.193,28.806,2,27.333,2z M8.899,7.99c1.149,0,1.857,0.857,1.879,1.982c0,1.102-0.729,1.984-1.901,1.984H8.855
		c-1.128,0-1.857-0.883-1.857-1.984C6.999,8.848,7.75,7.99,8.899,7.99z M10.992,25.006H7.197V13.197h3.794V25.006z M25.989,25.006
		h-3.927v-6.1c0-1.531-0.443-2.578-1.865-2.578c-1.084,0-1.73,0.705-2.014,1.387c-0.104,0.242-0.13,0.582-0.13,0.922v6.369h-4.052
		c0,0,0.052-10.654,0-11.725h4.052v1.615c0.521-0.776,1.453-1.882,3.539-1.882c2.584,0,4.396,1.951,4.396,5.455V25.006z"/>
</svg>
