<?xml version="1.0" encoding="utf-8"?>
<!DOCTYPE svg PUBLIC "-//W3C//DTD SVG 1.1//EN" "http://www.w3.org/Graphics/SVG/1.1/DTD/svg11.dtd">
<svg version="1.1" id="Layer_1" xmlns="http://www.w3.org/2000/svg" xmlns:xlink="http://www.w3.org/1999/xlink" viewBox="0 0 32 32" preserveAspectRatio="xMinYMin" width="32" height="32">
	<path fill="rgb(255,255,255)" d="M29,5.825l2-4l-3,2l-0.584,0.291c-1.191-1.393-2.939-2.291-4.916-2.291c-3.59,0-6.5,2.41-6.5,6c0,0.488,0.063,1.459,0.166,1.914L16,9.825c0,0-13-2-14-7c0,0-3,5,2,9c0,0-2,0.998-3,0c0,0,0,3,5,6c0,0-2,0.998-3,0c0,0,4,3.998,6,3.998c0,0,0,3-9,3c0,0,11.379,7.498,22-0.998c5.398-4.32,6.715-9.793,6.783-13.922C28.912,9.396,29,8.872,29,8.325v-0.5l3-3L29,5.825z"/>
</svg>
